Coordinates
version=1
nRows=9
nColumns=24
inDegrees=yes

Units are S.I. units (second, meters, Newtons, ...)
Angles are in degrees.

endheader
time	torso_tilt	torso_list	torso_rotation	torso_tx	torso_ty	torso_tz	lumbar_extension	lumbar_bending	lumbar_rotation	hip_flexion_r	hip_adduction_r	hip_rotation_r	knee_angle_r	ankle_angle_r	subtalar_angle_r	mtp_angle_r	hip_flexion_l	hip_adduction_l	hip_rotation_l	knee_angle_l	ankle_angle_l	subtalar_angle_l	mtp_angle_l
     14.59000000	    -12.72897349	     -1.41586007	      8.37222789	     -0.08003001	      1.21055657	      0.01822066	     12.42609105	      2.96440623	     -0.20896704	     -8.83874586	     -3.54835331	    -14.39808225	    -74.75435449	    -17.36210331	     -6.04043088	      0.00000000	     22.72589520	     11.94988511	      4.15113169	    -32.58337329	     13.94250818	     -4.77882730	      0.00000000
     14.60000000	    -13.19587976	     -1.62801388	      7.50201390	     -0.08137188	      1.20155537	      0.01687034	     13.34477267	      3.35754442	      1.22465091	     -7.80253537	     -4.48901381	    -15.45743399	    -78.81128613	    -15.43964033	     -7.19661162	      0.00000000	     23.87537286	     12.22666938	      3.34515068	    -38.48035889	     18.41987197	     -2.77236380	      0.00000000
     14.61000000	    -13.86608951	     -1.82196467	      6.66507457	     -0.08208990	      1.19430061	      0.01650261	     14.69175930	      3.29918320	      2.47566194	     -6.79623376	     -4.38472301	    -16.01013278	    -82.24338512	    -13.49933301	     -9.09566818	      0.00000000	     24.04371774	     11.77728439	      3.00683139	    -43.22669042	     22.60076915	     -0.27199213	      0.00000000
     14.62000000	    -14.42213786	     -1.96878492	      5.87920510	     -0.08246668	      1.18812762	      0.01636814	     15.96018353	      3.67892335	      3.35889907	     -5.92908753	     -5.05853706	    -16.36656392	    -85.14518996	    -11.28469131	    -10.04275014	      0.00000000	     23.24220526	     11.73507826	      2.90058126	    -46.26517219	     25.49644551	      0.84627636	      0.00000000
     14.63000000	    -14.78231510	     -2.14530511	      5.18658443	     -0.08305982	      1.18346856	      0.01598507	     16.58613804	      4.08736624	      3.80009770	     -4.32463509	     -5.67483543	    -16.24706300	    -87.80308074	     -8.87354541	    -10.94308285	      0.00000000	     22.31280612	     11.58809526	      2.75957960	    -48.16510049	     27.83270994	      1.47126748	      0.00000000
     14.64000000	    -14.98531585	     -2.27225893	      4.23533070	     -0.08359124	      1.18058298	      0.01554176	     16.56238569	      4.36242590	      4.28057518	     -2.03690892	     -5.97097813	    -15.79775677	    -90.01668402	     -6.65410057	    -11.75972666	      0.00000000	     21.36042111	     11.20700509	      2.64236980	    -49.02998271	     29.63732758	      1.47123258	      0.00000000
     14.65000000	    -15.09597526	     -2.28724569	      3.12712767	     -0.08405815	      1.17966835	      0.01539776	     16.25165875	      4.33191067	      4.86808241	      0.50715231	     -5.82986292	    -15.21529208	    -91.55690594	     -4.64061512	    -12.49190703	      0.00000000	     20.20927817	     10.50431142	      2.52709734	    -49.24162352	     31.41932580	      1.86294718	      0.00000000
     14.66000000	    -15.21837368	     -2.19704843	      1.91122469	     -0.08467902	      1.18018988	      0.01526318	     15.95295375	      4.16249470	      5.50494411	      3.14188861	     -5.56299580	    -14.54721206	    -92.57659648	     -2.81612008	    -12.71978922	      0.00000000	     18.76848429	      9.73310542	      2.38686131	    -48.89081657	     32.65743194	      1.96348877	      0.00000000
     14.67000000	    -15.42125515	     -2.00285440	      0.66192166	     -0.08544111	      1.18191794	      0.01524183	     15.78444892	      3.87929553	      6.16609716	      5.77226794	     -5.23379721	    -13.88234531	    -93.00533463	     -1.51820524	    -12.77366562	      0.00000000	     17.08541330	      8.93095505	      2.19519409	    -48.01856827	     33.65036318	      2.29416159	      0.00000000
